<svg width="1600" height="900" viewBox="0 0 1600 900" fill="none" xmlns="http://www.w3.org/2000/svg">
  <defs>
    <linearGradient id="bg" x1="94" y1="42" x2="1500" y2="835" gradientUnits="userSpaceOnUse">
      <stop stop-color="#F8EED8"/>
      <stop offset="0.45" stop-color="#E8F0FF"/>
      <stop offset="1" stop-color="#DDEFE7"/>
    </linearGradient>
    <radialGradient id="blob1" cx="0" cy="0" r="1" gradientUnits="userSpaceOnUse" gradientTransform="translate(390 295) rotate(37) scale(520 380)">
      <stop stop-color="#F7C88E" stop-opacity="0.75"/>
      <stop offset="1" stop-color="#F7C88E" stop-opacity="0"/>
    </radialGradient>
    <radialGradient id="blob2" cx="0" cy="0" r="1" gradientUnits="userSpaceOnUse" gradientTransform="translate(1180 602) rotate(12) scale(610 340)">
      <stop stop-color="#88ABC6" stop-opacity="0.6"/>
      <stop offset="1" stop-color="#88ABC6" stop-opacity="0"/>
    </radialGradient>
  </defs>
  <rect width="1600" height="900" fill="url(#bg)"/>
  <ellipse cx="390" cy="295" rx="520" ry="380" fill="url(#blob1)"/>
  <ellipse cx="1180" cy="602" rx="610" ry="340" fill="url(#blob2)"/>
  <rect x="130" y="120" width="1340" height="660" rx="42" fill="white" fill-opacity="0.28"/>
  <path d="M198 622C328 555 429 518 574 472C709 429 910 360 1052 336C1187 315 1274 329 1407 373" stroke="#222" stroke-opacity="0.14" stroke-width="18" stroke-linecap="round"/>
  <path d="M286 652C412 586 534 534 667 499C801 464 950 424 1094 405C1198 391 1276 396 1369 423" stroke="#222" stroke-opacity="0.1" stroke-width="12" stroke-linecap="round"/>
  <text x="200" y="260" fill="#1A1A1A" fill-opacity="0.72" font-size="76" font-family="'Helvetica Neue', Arial, sans-serif" font-weight="700">Seoul Vibe</text>
  <text x="200" y="324" fill="#1A1A1A" fill-opacity="0.56" font-size="34" font-family="'Helvetica Neue', Arial, sans-serif">Local routes with rhythm and context</text>
</svg>
