<?xml version="1.0" encoding="UTF-8"?>
<svg width="1600" height="900" viewBox="0 0 1600 900" fill="none" xmlns="http://www.w3.org/2000/svg">
  <defs>
    <linearGradient id="bg03" x1="0" y1="0" x2="1600" y2="900" gradientUnits="userSpaceOnUse">
      <stop stop-color="#fef9c3"/>
      <stop offset="1" stop-color="#fde68a"/>
    </linearGradient>
  </defs>
  <rect width="1600" height="900" fill="url(#bg03)"/>
  <rect x="68" y="64" width="1464" height="772" rx="42" fill="white" fill-opacity="0.54"/>
  <rect x="96" y="96" width="768" height="560" rx="34" fill="#ca8a04" fill-opacity="0.16"/>
  <g transform="translate(180,180)"><circle cx="120" cy="108" r="28" fill="white" opacity="0.92"/><path d="M120 82c-12 0-20 10-20 22v8l-7 9h54l-7-9v-8c0-12-8-22-20-22z" fill="#facc15"/><circle cx="120" cy="126" r="4" fill="#78350f"/></g>

  <circle cx="1060" cy="330" r="118" fill="white"/>
  <circle cx="1060" cy="302" r="46" fill="#fde68a"/>
  <rect x="982" y="352" width="156" height="142" rx="72" fill="#1f2937"/>
  <circle cx="1310" cy="360" r="104" fill="white"/>
  <circle cx="1310" cy="336" r="40" fill="#a7f3d0"/>
  <rect x="1242" y="382" width="136" height="130" rx="62" fill="#334155"/>

  <rect x="960" y="520" width="200" height="70" rx="35" fill="white"/>
  <text x="1060" y="564" text-anchor="middle" font-size="34" font-family="Arial, sans-serif" fill="#111827">기다림</text>
  <rect x="1204" y="520" width="220" height="70" rx="35" fill="white"/>
  <text x="1314" y="564" text-anchor="middle" font-size="34" font-family="Arial, sans-serif" fill="#111827">벨 호출</text>

  <text x="110" y="720" font-size="72" font-weight="700" font-family="Arial, sans-serif" fill="#111827">식당 리듬</text>
  <text x="110" y="786" font-size="40" font-family="Arial, sans-serif" fill="#374151">호출벨과 빠른 주문이 기본</text>
  <rect x="110" y="810" width="260" height="10" rx="5" fill="#ca8a04"/>
</svg>
