<svg width="1600" height="900" viewBox="0 0 1600 900" xmlns="http://www.w3.org/2000/svg">
  <defs>
    <pattern id="dots" width="8" height="8" patternUnits="userSpaceOnUse">
      <circle cx="2" cy="2" r="1" fill="#dbeafe"/>
    </pattern>
    <linearGradient id="bg" x1="0" y1="0" x2="1" y2="1">
      <stop offset="0%" stop-color="#f8fafc"/>
      <stop offset="100%" stop-color="#e0f2fe"/>
    </linearGradient>
  </defs>

  <rect width="1600" height="900" fill="url(#bg)"/>
  <rect x="24" y="24" width="1552" height="852" rx="28" fill="#ffffff" stroke="#111827" stroke-width="8"/>

  <g transform="translate(60,70)">
    <rect x="0" y="0" width="720" height="340" rx="20" fill="#fef3c7" stroke="#111827" stroke-width="6"/>
    <rect x="760" y="0" width="720" height="340" rx="20" fill="#fee2e2" stroke="#111827" stroke-width="6"/>
    <rect x="0" y="370" width="1480" height="420" rx="20" fill="#ecfeff" stroke="#111827" stroke-width="6"/>

    <rect x="24" y="24" width="672" height="292" rx="16" fill="url(#dots)"/>
    <rect x="784" y="24" width="672" height="292" rx="16" fill="url(#dots)"/>

    <circle cx="190" cy="170" r="78" fill="#fef08a" stroke="#111827" stroke-width="6"/>
    <rect x="130" y="246" width="120" height="72" rx="30" fill="#1f2937"/>
    <circle cx="1040" cy="170" r="78" fill="#bbf7d0" stroke="#111827" stroke-width="6"/>
    <rect x="980" y="246" width="120" height="72" rx="30" fill="#334155"/>

    <ellipse cx="390" cy="110" rx="170" ry="64" fill="#ffffff" stroke="#111827" stroke-width="5"/>
    <ellipse cx="1190" cy="110" rx="210" ry="72" fill="#ffffff" stroke="#111827" stroke-width="5"/>

    <rect x="270" y="470" width="940" height="240" rx="20" fill="#ffffff" stroke="#111827" stroke-width="5"/>
    <path d="M420 710 L385 760 L470 720" fill="#ffffff" stroke="#111827" stroke-width="5"/>

    <text x="36" y="64" font-size="44" font-weight="800" font-family="Arial, sans-serif" fill="#111827">EP.01</text>
    <text x="36" y="120" font-size="54" font-weight="800" font-family="Arial, sans-serif" fill="#111827">이름의 유래</text>

    <text x="320" y="560" font-size="62" font-weight="800" font-family="Arial, sans-serif" fill="#111827">Korea = Goryeo?</text>
    <text x="320" y="640" font-size="44" font-family="Arial, sans-serif" fill="#374151">한국 이름은 왜 이렇게 여러 개일까</text>

    <rect x="110" y="440" width="130" height="260" rx="16" fill="#93c5fd" stroke="#111827" stroke-width="5"/>
    <path d="M130 470 h90 M130 500 h90 M130 530 h90 M130 560 h90 M130 590 h90 M130 620 h90" stroke="#1e3a8a" stroke-width="5"/>
  </g>
</svg>
